<svg width="225" height="40" viewBox="0 0 225 40" fill="none" xmlns="http://www.w3.org/2000/svg">
<path d="M54.107 38.2748L52.6438 36.1886L52.0298 36.8296V38.2748H51V33.6147H52.0298V35.6829L53.8903 33.6147H55.1458L53.3305 35.4843L55.3535 38.2752H54.107V38.2748Z" fill="white"/>
<path d="M56.03 38.2748V33.6147H57.0598V35.4391H59.1009V33.6147H60.1303V38.2748H59.1009V36.2522H57.0598V38.2748H56.03Z" fill="white"/>
<path d="M61.3929 38.2748V33.6147H62.4227V37.0102H62.4498L64.1929 33.6147H65.4936V38.2748H64.4643V34.8793H64.4367L62.6936 38.2748H61.3929Z" fill="white"/>
<path d="M72.0849 38.2748L70.6578 36.2522L70.2244 36.7398V38.2748H69.2312V36.7398L68.7977 36.2522L67.3707 38.2748H66.1332L68.1381 35.6017L66.3589 33.6147H67.6054L69.2041 35.5836H69.2312V33.6147H70.2244V35.5836H70.2515L71.8501 33.6147H73.0962L71.3169 35.6017L73.3219 38.2748H72.0849Z" fill="white"/>
<path d="M73.9617 38.2748V33.6147H74.9915V35.4391H77.0326V33.6147H78.0624V38.2748H77.0326V36.2522H74.9915V38.2748H73.9617Z" fill="white"/>
<path d="M81.5553 38.2745H79.2794V33.6145H80.3092V35.3034H81.5462C82.567 35.3034 83.1359 35.8723 83.1359 36.7842C83.1359 37.7052 82.567 38.2745 81.5553 38.2745ZM81.4198 36.107H80.3092V37.4709H81.4379C81.9074 37.4709 82.1061 37.1815 82.1061 36.8027C82.1061 36.3955 81.8623 36.107 81.4198 36.107ZM84.8067 33.614V38.2741H83.7774V33.614H84.8067Z" fill="white"/>
<path d="M86.0245 38.2747V33.6146H87.0543V37.0101H87.0814L88.8245 33.6146H90.1252V38.2747H89.0959V34.8792H89.0688L87.3257 38.2747H86.0245ZM88.0747 32.9641C87.1532 32.9641 86.6837 32.5577 86.5934 31.6909H87.1171C87.2345 32.1604 87.5324 32.3776 88.0747 32.3776C88.6169 32.3776 88.9144 32.1609 89.0322 31.6909H89.5559C89.4656 32.5573 88.9961 32.9641 88.0747 32.9641Z" fill="white"/>
<path d="M94.078 38.2748V33.6147H95.1078V37.0102H95.1349L96.878 33.6147H98.1787V38.2748H97.1489V34.8793H97.1218L95.3787 38.2748H94.078Z" fill="white"/>
<path d="M99.4417 38.2748V33.6147H100.471V35.4391H102.513V33.6147H103.542V38.2748H102.513V36.2522H100.471V38.2748H99.4417Z" fill="white"/>
<path d="M106.873 34.4271V38.2741H105.844V34.4271H104.308V33.614H108.409V34.4271H106.873Z" fill="white"/>
<path d="M111.234 38.4277C109.798 38.4277 108.94 37.3894 108.94 35.9984C108.94 34.5352 109.889 33.4788 111.198 33.4788C112.562 33.4788 113.411 34.4815 113.411 36.0887V36.197H109.969C109.996 37.1361 110.457 37.6693 111.252 37.6693C111.821 37.6693 112.155 37.416 112.363 36.8201H113.347C113.113 37.8413 112.282 38.4277 111.234 38.4277ZM111.189 34.2467C110.512 34.2467 110.087 34.6891 109.987 35.5113H112.381C112.318 34.7253 111.866 34.2467 111.189 34.2467Z" fill="white"/>
<path d="M115.36 34.2372C115.685 33.7135 116.273 33.4788 116.877 33.4788C118.169 33.4788 119 34.4539 119 35.9623C119 37.4345 118.187 38.3916 116.932 38.3916C116.299 38.3916 115.784 38.1754 115.415 37.6603V39.9998H114.394V33.6142H115.36V34.2372ZM115.378 35.9442C115.378 36.9555 115.866 37.57 116.688 37.57C117.473 37.57 117.961 36.956 117.961 35.9623C117.961 34.951 117.464 34.3095 116.67 34.3095C115.857 34.3095 115.378 34.9239 115.378 35.9442Z" fill="white"/>
<path d="M120.073 38.2748V33.6147H121.103V35.4391H123.144V33.6147H124.173V38.2748H123.144V36.2522H121.103V38.2748H120.073Z" fill="white"/>
<path d="M127.496 38.4277C126.06 38.4277 125.202 37.3894 125.202 35.9984C125.202 34.5352 126.15 33.4788 127.46 33.4788C128.824 33.4788 129.672 34.4815 129.672 36.0887V36.197H126.231C126.258 37.1361 126.719 37.6693 127.514 37.6693C128.083 37.6693 128.417 37.416 128.624 36.8201H129.609C129.374 37.8413 128.543 38.4277 127.496 38.4277ZM127.451 34.2467C126.773 34.2467 126.349 34.6891 126.249 35.5113H128.643C128.579 34.7253 128.128 34.2467 127.451 34.2467Z" fill="white"/>
<path d="M132.706 34.4271V38.2741H131.676V34.4271H130.141V33.614H134.241V34.4271H132.706Z" fill="white"/>
<path d="M137.545 36.2691H134.899V35.312H137.545V36.2691Z" fill="white"/>
<path d="M138.7 38.2748V33.6147H140.055L141.355 37.3177H141.373L142.629 33.6147H143.983V38.2748H142.99V35.1773H142.972L141.861 38.2748H140.823L139.712 35.1773H139.694V38.2748H138.7Z" fill="white"/>
<path d="M147.234 33.4695C148.335 33.4695 149.148 33.8758 149.148 34.8785V37.2447C149.148 37.5155 149.202 37.5878 149.392 37.5878C149.464 37.5878 149.5 37.5878 149.627 37.5697V38.2925C149.302 38.3738 149.157 38.3918 148.959 38.3918C148.561 38.3918 148.272 38.2383 148.2 37.832C147.776 38.2383 147.179 38.3918 146.565 38.3918C145.599 38.3918 144.994 37.8591 144.994 37.0013C144.994 35.7638 146.15 35.6465 147.08 35.5291C147.794 35.4388 148.001 35.3932 148.101 35.2577C148.146 35.2036 148.164 35.0957 148.164 34.9237C148.164 34.4451 147.857 34.2194 147.207 34.2194C146.539 34.2194 146.25 34.4451 146.169 35.0501H145.193C145.31 33.9033 146.096 33.4695 147.234 33.4695ZM147.071 36.1878C146.592 36.26 146.051 36.3503 146.051 36.9647C146.051 37.4072 146.358 37.66 146.89 37.66C147.314 37.66 147.712 37.5246 147.947 37.2898C148.164 37.0735 148.155 36.7661 148.155 36.4862V35.9354C147.821 36.125 147.441 36.1336 147.071 36.1878Z" fill="white"/>
<path d="M151.468 34.4271V38.2741H150.439V33.614H153.699V34.4271H151.468Z" fill="white"/>
<path d="M156.461 33.4695C157.563 33.4695 158.376 33.8758 158.376 34.8785V37.2447C158.376 37.5155 158.43 37.5878 158.62 37.5878C158.692 37.5878 158.728 37.5878 158.855 37.5697V38.2925C158.53 38.3738 158.385 38.3918 158.187 38.3918C157.789 38.3918 157.5 38.2383 157.428 37.832C157.004 38.2383 156.407 38.3918 155.793 38.3918C154.827 38.3918 154.222 37.8591 154.222 37.0013C154.222 35.7638 155.378 35.6465 156.308 35.5291C157.022 35.4388 157.229 35.3932 157.329 35.2577C157.374 35.2036 157.392 35.0957 157.392 34.9237C157.392 34.4451 157.085 34.2194 156.435 34.2194C155.767 34.2194 155.478 34.4451 155.396 35.0501H154.421C154.538 33.9033 155.323 33.4695 156.461 33.4695ZM156.298 36.1878C155.82 36.26 155.278 36.3503 155.278 36.9647C155.278 37.4072 155.585 37.66 156.118 37.66C156.542 37.66 156.94 37.5246 157.174 37.2898C157.391 37.0735 157.382 36.7661 157.382 36.4862V35.9354C157.048 36.125 156.669 36.1336 156.298 36.1878Z" fill="white"/>
<path d="M161.491 38.4011C160.136 38.4011 159.431 37.7871 159.386 36.8205H160.425C160.515 37.4616 161.03 37.6061 161.481 37.6061C162.059 37.6061 162.448 37.3533 162.448 36.9108C162.448 36.5226 162.25 36.2241 161.536 36.2241H160.958V35.4652H161.374C161.915 35.4652 162.304 35.3212 162.304 34.8512C162.304 34.5081 162.06 34.2643 161.455 34.2643C160.904 34.2643 160.651 34.5533 160.561 34.9596H159.522C159.63 33.7767 160.615 33.4788 161.554 33.4788C162.512 33.4788 163.324 33.8219 163.324 34.7338C163.324 35.267 162.954 35.6372 162.575 35.7185V35.7366C163.008 35.8178 163.478 36.17 163.478 36.8928C163.477 37.904 162.475 38.4011 161.491 38.4011Z" fill="white"/>
<path d="M164.533 38.2748V33.6147H165.563V37.0102H165.59L167.333 33.6147H168.634V38.2748H167.604V34.8793H167.577L165.834 38.2748H164.533Z" fill="white"/>
<path d="M169.896 38.2748V33.6147H170.925V35.4391H172.966V33.6147H173.996V38.2748H172.966V36.2522H170.925V38.2748H169.896Z" fill="white"/>
<path d="M95.15 6.00904H79.1834H74.3798L67.0624 19.4903H66.9807V6.00904H62.7211V25.4786H67.5251L74.8398 11.9707H74.9242V25.4786H79.1834V9.64606H85.0222V25.4781H89.3094V9.64606H95.1505V6.00904H95.15ZM31.1021 25.6027H35.6669V6.06005H31.1021V25.6027ZM36.7712 6.35712L39.7558 25.6678L42.0741 25.3061L39.089 5.99549L36.7712 6.35712ZM56.4028 13.9932C55.7721 14.1052 53.7251 14.4325 52.5527 14.4325C50.368 14.4325 49.5202 13.5851 49.5202 11.2343V6.00904H45.2633V11.1788C45.2633 16.1811 47.8565 17.9887 52.2231 17.9887C53.3725 17.9887 55.4728 17.6316 56.4028 17.442V25.4786H60.6597V6.00904H56.4028V13.9932ZM118.788 4.50655C121.547 4.50655 123.489 2.59143 123.712 0H121.065C120.844 0.981491 120.082 1.79955 118.788 1.79955C117.495 1.79955 116.736 0.98104 116.507 0H113.864C114.089 2.59097 116.03 4.50655 118.788 4.50655ZM0 25.6027H15.6375L17.1567 6.06005H0V25.6027ZM19.4899 6.06005L17.9914 25.6027H22.9887L21.9901 6.06005H19.4899ZM27.6894 25.6027H29.9319V6.06005H26.6867L27.6894 25.6027ZM178.252 6.00904H169.871V25.4786H174.102V18.479H178.469C182.375 18.479 185.375 16.512 185.375 12.2723C185.376 7.9806 182.457 6.00904 178.252 6.00904ZM177.899 15.117H174.102V9.51288H177.925C179.806 9.51288 181.226 10.2492 181.226 12.3273C181.226 14.489 179.806 15.117 177.899 15.117ZM159.552 5.54402C153.739 5.54402 149.917 9.59053 149.917 15.7716C149.917 21.8709 153.766 25.9472 159.523 25.9472C165.231 25.9472 169.079 21.8443 169.079 15.7716C169.08 9.67631 165.232 5.54402 159.552 5.54402ZM159.552 22.4176C156.249 22.391 154.23 19.8736 154.23 15.6899C154.23 11.6434 156.279 9.0438 159.498 9.0438C162.744 9.0438 164.767 11.5878 164.767 15.6899C164.767 19.8474 162.774 22.4176 159.552 22.4176ZM98.1283 5.97879L90.7288 25.4781H95.0981L96.6818 21.1346H103.917L105.441 25.4781H109.922L102.522 5.97879H98.1283ZM97.7193 18.0145L100.31 10.7653L102.876 18.0145H97.7193ZM222.457 21.8447V6.00904H208.618V8.96209C208.618 14.7088 207.801 18.7806 205.506 21.8447H204.034V30.4885H208.153V25.4786H220.494V30.489H224.617V21.8447H222.457ZM218.2 21.8447H210.256C211.976 18.6984 212.85 15.1431 212.85 9.8104V9.48308H218.2V21.8447ZM195.491 5.54402C189.675 5.54402 185.854 9.59053 185.854 15.7716C185.854 21.8709 189.705 25.9472 195.465 25.9472C201.17 25.9472 205.018 21.8443 205.018 15.7716C205.018 9.67631 201.17 5.54402 195.491 5.54402ZM195.491 22.4176C192.189 22.391 190.166 19.8736 190.166 15.6899C190.166 11.6434 192.215 9.0438 195.439 9.0438C198.686 9.0438 200.705 11.5878 200.705 15.6899C200.705 19.8474 198.713 22.4176 195.491 22.4176ZM150.899 6.00904H139.692V25.6027H143.978V9.66818H150.899V6.00904ZM114.599 19.4903H114.517V6.00904H110.257V25.4786H115.061L122.376 11.9707H122.456V25.4786H126.717V6.00904H121.913L114.599 19.4903ZM129.106 19.7788H137.303V16.3142H129.106V19.7788Z" fill="white"/>
</svg>
