<svg width="48" height="48" viewBox="0 0 48 48" fill="none" xmlns="http://www.w3.org/2000/svg">
<g filter="url(#filter0_d)">
<circle cx="24" cy="24" r="21" fill="white"/>
<path d="M13.8498 28.8808C13.227 28.8808 12.722 29.3857 12.722 30.0086C12.722 30.6314 13.227 31.1364 13.8498 31.1364H34.1498C34.7727 31.1364 35.2776 30.6314 35.2776 30.0086C35.2776 29.3857 34.7727 28.8808 34.1498 28.8808H13.8498ZM13.8498 23.2419C13.227 23.2419 12.722 23.7468 12.722 24.3697C12.722 24.9925 13.227 25.4975 13.8498 25.4975H34.1498C34.7727 25.4975 35.2776 24.9925 35.2776 24.3697C35.2776 23.7468 34.7727 23.2419 34.1498 23.2419H13.8498ZM13.8498 17.603C13.227 17.603 12.722 18.108 12.722 18.7308C12.722 19.3537 13.227 19.8586 13.8498 19.8586H34.1498C34.7727 19.8586 35.2776 19.3537 35.2776 18.7308C35.2776 18.108 34.7727 17.603 34.1498 17.603H13.8498Z" fill="#E5E5E5"/>
</g>
<defs>
<filter id="filter0_d" x="0" y="0" width="48" height="48" filterUnits="userSpaceOnUse" color-interpolation-filters="sRGB">
<feFlood flood-opacity="0" result="BackgroundImageFix"/>
<feColorMatrix in="SourceAlpha" type="matrix" values="0 0 0 0 0 0 0 0 0 0 0 0 0 0 0 0 0 0 127 0"/>
<feOffset/>
<feGaussianBlur stdDeviation="1.5"/>
<feColorMatrix type="matrix" values="0 0 0 0 0 0 0 0 0 0 0 0 0 0 0 0 0 0 0.25 0"/>
<feBlend mode="normal" in2="BackgroundImageFix" result="effect1_dropShadow"/>
<feBlend mode="normal" in="SourceGraphic" in2="effect1_dropShadow" result="shape"/>
</filter>
</defs>
</svg>
