<svg width="140" height="132" viewBox="0 0 140 132" fill="none" xmlns="http://www.w3.org/2000/svg">
<path d="M139.333 0.870605H0.666626V129.139H139.333V0.870605Z" fill="#D0EAE5"/>
<path d="M0.666626 112.71C0.666626 112.71 11.1413 98.4939 68.0906 97.9701C125.04 97.4463 139.333 115.596 139.333 115.596V128.626H0.762626L0.666626 112.71Z" fill="#8BC53F"/>
<path d="M61.8827 43.4771V39.5649H62.704L69.6907 9.18677L76.6774 39.458H78.4267V43.584L61.8827 43.4771Z" fill="#00A14B"/>
<path d="M30.032 131.095V110.198H31.2693V111.331H33.6267V110.091H35.2693V118.118H37.1253V110.198H38.864V111.117H40.72V109.995H42.256V118.118H44.112V109.995H45.9573V111.021H47.7066V109.995H49.4453V118.118H52.8373V76.3243L54.896 68.7031H56.336L57.9786 76.1106H61.68V43.167L64.8587 40.4948L67.3333 43.0601L70.1066 40.281L72.2613 42.8571L75.344 40.281L78.224 43.9901V76.0144H82.128L83.8666 68.7031H85.2106L87.056 76.0144V118.118H90.7573V110.198H92.2933V111.021H94.1493V110.091H95.9947V118.118H97.84V110.198H99.3867V110.914H101.232V109.995H103.184V118.118H104.933V110.198H106.373V111.021H108.432V109.995H109.968V131.095H30.032Z" fill="#D46240"/>
<path d="M52.816 77.2435H56.6454L60.1334 73.6413L63.0134 77.4572L69.8934 74.3681V72.1021L69.8507 74.4643L76.1974 77.6924L80.272 73.8444L83.2587 77.2435H87.0454" stroke="#F9ED31" stroke-width="1.16" stroke-miterlimit="10"/>
<path d="M56.6454 77.2437V89.5039" stroke="#F9ED31" stroke-width="1.16" stroke-miterlimit="10"/>
<path d="M63.0133 77.4573V89.3969" stroke="#F9ED31" stroke-width="1.16" stroke-miterlimit="10"/>
<path d="M76.0801 77.575V89.5039" stroke="#F9ED31" stroke-width="1.16" stroke-miterlimit="10"/>
<path d="M83.2587 77.2437V89.707" stroke="#F9ED31" stroke-width="1.16" stroke-miterlimit="10"/>
<path d="M52.7839 89.3542L87.0773 89.29" stroke="#F9ED31" stroke-width="1.16" stroke-miterlimit="10"/>
<path d="M62.2346 52.4344V43.445L64.944 40.559L67.3226 43.0816L70 40.2383L72.4533 42.8036L74.8746 40.2383L78.0746 43.5839V52.7444C75.7336 50.7742 72.7457 49.7456 69.6906 49.8584C64.2613 49.8584 62.2346 52.4344 62.2346 52.4344Z" stroke="#F9ED31" stroke-width="1.12" stroke-miterlimit="10"/>
<path d="M67.28 43.1135V49.9652" stroke="#F9ED31" stroke-width="1.16" stroke-miterlimit="10"/>
<path d="M72.72 42.8035V49.6551" stroke="#F9ED31" stroke-width="1.16" stroke-miterlimit="10"/>
<path d="M70 68.393C73.9411 68.393 77.136 65.1914 77.136 61.242C77.136 57.2927 73.9411 54.0911 70 54.0911C66.0589 54.0911 62.864 57.2927 62.864 61.242C62.864 65.1914 66.0589 68.393 70 68.393Z" fill="#3B2213" stroke="#F9ED31" stroke-width="1.16" stroke-miterlimit="10"/>
<path d="M65.3813 61.2848L70 61.2421L73.1893 57.6826" fill="#3B2213"/>
<path d="M65.3813 61.2848L70 61.2421L73.1893 57.6826" stroke="#F9ED31" stroke-width="1.16" stroke-miterlimit="10"/>
<path d="M69.8507 5.68066L70.7894 7.58331L72.8907 7.89329L71.3654 9.37906L71.7281 11.4741L69.8507 10.48L67.9627 11.4741L68.3254 9.37906L66.8 7.89329L68.9014 7.58331L69.8507 5.68066Z" fill="#F9ED31"/>
<path d="M52.816 93.929H87.0454" stroke="#74312D" stroke-width="1.16" stroke-miterlimit="10"/>
<path d="M52.7839 101.882H87.0773" stroke="#74312D" stroke-width="1.16" stroke-miterlimit="10"/>
<path d="M52.7839 113.693H87.0453" stroke="#74312D" stroke-width="1.16" stroke-miterlimit="10"/>
<path d="M61.1893 113.693V131.277" stroke="#74312D" stroke-width="1.16" stroke-miterlimit="10"/>
<path d="M79.376 113.693V131.191" stroke="#74312D" stroke-width="1.16" stroke-miterlimit="10"/>
<path d="M73.776 122.159C73.776 121.178 73.3871 120.237 72.695 119.544C72.0029 118.85 71.0641 118.46 70.0853 118.46C69.1065 118.46 68.1678 118.85 67.4756 119.544C66.7835 120.237 66.3947 121.178 66.3947 122.159V131.266H73.7973V122.159H73.776Z" fill="#74312D"/>
<path d="M62.7359 106.285C62.794 106.024 62.7928 105.754 62.7324 105.493C62.672 105.233 62.5541 104.989 62.3871 104.781C62.2202 104.572 62.0087 104.404 61.7681 104.288C61.5276 104.172 61.2641 104.112 60.9973 104.112C60.7304 104.112 60.467 104.172 60.2264 104.288C59.9859 104.404 59.7743 104.572 59.6074 104.781C59.4405 104.989 59.3225 105.233 59.2621 105.493C59.2018 105.754 59.2006 106.024 59.2586 106.285V111.769H62.7466V106.285H62.7359Z" fill="#74312D"/>
<path d="M67.7706 106.285C67.8287 106.024 67.8275 105.754 67.7671 105.493C67.7067 105.233 67.5887 104.989 67.4218 104.781C67.2549 104.572 67.0434 104.404 66.8028 104.288C66.5622 104.172 66.2988 104.112 66.0319 104.112C65.7651 104.112 65.5017 104.172 65.2611 104.288C65.0205 104.404 64.809 104.572 64.6421 104.781C64.4752 104.989 64.3572 105.233 64.2968 105.493C64.2364 105.754 64.2352 106.024 64.2933 106.285V111.769H67.7813V106.285H67.7706Z" fill="#74312D"/>
<path d="M75.8347 106.285C75.8928 106.024 75.8915 105.754 75.8312 105.493C75.7708 105.233 75.6528 104.989 75.4859 104.781C75.319 104.572 75.1074 104.404 74.8669 104.288C74.6263 104.172 74.3629 104.112 74.096 104.112C73.8292 104.112 73.5658 104.172 73.3252 104.288C73.0846 104.404 72.8731 104.572 72.7062 104.781C72.5393 104.989 72.4213 105.233 72.3609 105.493C72.3005 105.754 72.2993 106.024 72.3574 106.285V111.769H75.8454V106.285H75.8347Z" fill="#74312D"/>
<path d="M80.8694 106.285C80.9274 106.024 80.9262 105.754 80.8658 105.493C80.8055 105.233 80.6875 104.989 80.5206 104.781C80.3537 104.572 80.1421 104.404 79.9015 104.288C79.661 104.172 79.3975 104.112 79.1307 104.112C78.8638 104.112 78.6004 104.172 78.3598 104.288C78.1193 104.404 77.9077 104.572 77.7408 104.781C77.5739 104.989 77.4559 105.233 77.3956 105.493C77.3352 105.754 77.334 106.024 77.392 106.285V111.769H80.88V106.285H80.8694Z" fill="#74312D"/>
<path d="M60.8053 79.1035H59.1626V86.8744H60.8053V79.1035Z" fill="#74312D"/>
<path d="M80.5599 79.0713H78.9172V86.8422H80.5599V79.0713Z" fill="#74312D"/>
<path d="M33.6267 113.597H31.7814V117.253H33.6267V113.597Z" fill="#74312D"/>
<path d="M40.7093 113.597H38.864V117.253H40.7093V113.597Z" fill="#74312D"/>
<path d="M47.7494 113.597H45.9041V117.253H47.7494V113.597Z" fill="#74312D"/>
<path d="M94.3521 113.597H92.5067V117.253H94.3521V113.597Z" fill="#74312D"/>
<path d="M101.435 113.597H99.5894V117.253H101.435V113.597Z" fill="#74312D"/>
<path d="M108.475 113.597H106.629V117.253H108.475V113.597Z" fill="#74312D"/>
<path d="M56.4853 65.9773H54.5333V68.8099H56.4853V65.9773Z" fill="#F9ED31"/>
<path d="M85.5094 65.9773H83.5574V68.8099H85.5094V65.9773Z" fill="#F9ED31"/>
</svg>
