<svg width="160" height="79" viewBox="0 0 160 79" fill="none" xmlns="http://www.w3.org/2000/svg">
<path d="M160 0H0V78.3217H160V0Z" fill="white"/>
<path d="M85.6301 29.3375C86.5805 29.285 87.5255 29.16 88.4568 28.9636V34.3855H91.346V21.2514H88.4568V26.6421C87.5952 26.7996 86.7238 26.8985 85.8487 26.9381C84.3651 26.9381 83.8028 26.3617 83.8028 24.7725V21.2514H80.9136V24.7413C80.9136 28.0443 82.6784 29.3375 85.6301 29.3375ZM45.2904 21.2514L42.8541 48.2051H49.9756L48.5388 21.2669L45.2904 21.2514ZM21.8643 48.1895H39.59L41.9795 21.2514H21.6769L21.8643 48.1895ZM133.997 25.271V34.3855H136.808V21.2514H133.56L128.609 30.3502V21.2514H125.657V34.3855H128.906L133.997 25.271ZM131.42 20.2542C132.277 20.2795 133.108 19.9662 133.734 19.3826C134.36 18.799 134.73 17.9923 134.762 17.1382H132.966C132.966 17.5514 132.802 17.9477 132.509 18.2399C132.216 18.5321 131.819 18.6962 131.405 18.6962C130.99 18.6962 130.593 18.5321 130.3 18.2399C130.007 17.9477 129.843 17.5514 129.843 17.1382H128.062C128.095 17.9951 128.467 18.8042 129.096 19.3882C129.725 19.9723 130.561 20.2837 131.42 20.2542ZM115.459 34.4322L116.537 31.5031H121.441L122.471 34.4322H125.501L120.488 21.2825H117.505L112.445 34.3855L115.459 34.4322ZM118.989 24.5076L120.722 29.3998H117.24L118.989 24.5076ZM56.5193 48.2363H59.6427V21.2514H55.02L56.5193 48.2363ZM101.357 34.3855H104.246V23.713H108.213V34.401H111.118V23.713H115.475V21.2514H100.982L96.0312 30.3502V21.2514H93.0795V34.3855H96.328L101.279 25.271L101.357 34.3855ZM94.2977 34.775C90.3621 34.775 87.7696 37.5015 87.7696 41.677C87.7265 42.5538 87.8624 43.4303 88.169 44.2532C88.4757 45.076 88.9467 45.8282 89.5535 46.464C90.1603 47.0998 90.8902 47.606 91.699 47.9518C92.5079 48.2977 93.3787 48.476 94.2587 48.476C95.1386 48.476 96.0095 48.2977 96.8183 47.9518C97.6271 47.606 98.357 47.0998 98.9638 46.464C99.5706 45.8282 100.042 45.076 100.348 44.2532C100.655 43.4303 100.791 42.5538 100.748 41.677C100.748 37.5638 98.1396 34.775 94.2821 34.775H94.2977ZM94.2977 46.1641C92.0644 46.1641 90.6901 44.4503 90.6901 41.6303C90.6901 38.8102 92.08 37.1432 94.2665 37.1432C96.4529 37.1432 97.8272 38.857 97.8272 41.6303C97.8272 44.4035 96.4685 46.1641 94.2821 46.1641H94.2977ZM118.692 34.775C114.756 34.775 112.164 37.5015 112.164 41.677C112.121 42.5538 112.257 43.4303 112.563 44.2532C112.87 45.076 113.341 45.8282 113.948 46.464C114.555 47.0998 115.285 47.606 116.093 47.9518C116.902 48.2977 117.773 48.476 118.653 48.476C119.533 48.476 120.404 48.2977 121.213 47.9518C122.021 47.606 122.751 47.0998 123.358 46.464C123.965 45.8282 124.436 45.076 124.743 44.2532C125.049 43.4303 125.185 42.5538 125.142 41.677C125.204 37.5638 122.596 34.775 118.692 34.775ZM118.692 46.1641C116.459 46.1641 115.084 44.4503 115.084 41.6303C115.084 38.8102 116.474 37.1432 118.661 37.1432C120.847 37.1432 122.237 38.857 122.237 41.6303C122.237 44.4035 120.925 46.1641 118.692 46.1641ZM106.979 35.0866H101.357V48.2986H104.23V43.6245H107.182C109.821 43.6245 111.867 42.3002 111.867 39.4335C111.867 36.5667 109.868 35.0866 107.026 35.0866H106.979ZM106.745 41.2252H104.215V37.3924H106.807C108.088 37.3924 109.04 37.891 109.04 39.2932C109.04 40.6954 108.088 41.2252 106.792 41.2252H106.745ZM69.0132 21.672L73.1362 48.2986L76.3377 47.8L72.2147 21.1735L69.0132 21.672ZM61.2045 48.1584H67.4514V21.2514H61.2045V48.1584ZM88.5193 35.0554H80.9136V48.2986H83.8028V37.5483H88.488L88.5193 35.0554ZM136.933 45.7434V35.0866H127.563V37.0808C127.563 40.9603 127 43.7024 125.454 45.7746H124.455V51.6016H127.25V48.2986H135.606V51.6795H138.401V45.7746L136.933 45.7434ZM134.044 45.7434H128.547C129.836 43.2386 130.44 40.4384 130.296 37.6261V37.3924H133.919L134.044 45.7434Z" fill="#26A9E0"/>
<path d="M23.8321 62.3209C23.5366 62.3346 23.2417 62.2836 22.968 62.1717C22.6943 62.0597 22.4485 61.8894 22.2477 61.6728C22.0468 61.4561 21.8959 61.1983 21.8054 60.9173C21.7149 60.6363 21.687 60.3391 21.7238 60.0462C21.6833 59.7441 21.7086 59.4367 21.7981 59.1452C21.8875 58.8537 22.039 58.5849 22.2421 58.3572C22.4452 58.1294 22.6952 57.948 22.975 57.8254C23.2548 57.7029 23.5578 57.642 23.8634 57.6469C24.0895 57.6233 24.3181 57.6452 24.5357 57.7112C24.7532 57.7772 24.9553 57.8861 25.13 58.0313C25.3047 58.1765 25.4484 58.3552 25.5528 58.5568C25.6571 58.7584 25.7199 58.9787 25.7374 59.2049H24.9878C24.9602 58.9336 24.8304 58.6829 24.6245 58.5036C24.4186 58.3242 24.1521 58.2296 23.879 58.2389C23.0356 58.2389 22.5046 58.9089 22.5046 59.9683C22.5046 61.0278 23.0044 61.6977 23.8321 61.6977C23.9859 61.7019 24.1391 61.6758 24.2828 61.6208C24.4265 61.5659 24.5579 61.4833 24.6696 61.3777C24.7813 61.272 24.871 61.1455 24.9337 61.0053C24.9963 60.865 25.0306 60.7139 25.0347 60.5604H25.7687C25.7587 60.8033 25.7005 61.0417 25.5975 61.262C25.4945 61.4823 25.3487 61.6801 25.1686 61.8438C24.9885 62.0075 24.7777 62.134 24.5483 62.2159C24.3189 62.2978 24.0755 62.3335 23.8321 62.3209Z" fill="#58595B"/>
<path d="M28.4236 62.4143C28.1285 62.4263 27.8342 62.3735 27.5618 62.2595C27.2894 62.1455 27.0455 61.9731 26.8473 61.7545C26.6491 61.536 26.5015 61.2767 26.4149 60.9949C26.3284 60.7131 26.305 60.4158 26.3465 60.124C26.2975 59.8241 26.3131 59.5172 26.3925 59.2239C26.4719 58.9305 26.6132 58.6574 26.8068 58.4229C27.0005 58.1884 27.2422 57.9979 27.5156 57.864C27.789 57.7301 28.0879 57.6561 28.3924 57.6467C29.8448 57.6467 30.3914 58.7997 30.3914 60.0772V60.1863H27.0805C27.048 60.3823 27.0595 60.583 27.1143 60.774C27.1691 60.965 27.2657 61.1414 27.3973 61.2905C27.5288 61.4396 27.6919 61.5577 27.8748 61.6362C28.0578 61.7147 28.2559 61.7516 28.4548 61.7443C28.7338 61.7636 29.0099 61.6785 29.2294 61.5057C29.4488 61.3329 29.5958 61.0847 29.6418 60.8095H30.3602C30.3127 61.2769 30.0831 61.7069 29.7209 62.007C29.3587 62.3072 28.8928 62.4534 28.4236 62.4143ZM28.4236 58.3167C28.2493 58.3187 28.0771 58.355 27.9168 58.4234C27.7565 58.4919 27.6113 58.5911 27.4895 58.7155C27.3677 58.84 27.2716 58.9871 27.2068 59.1486C27.142 59.31 27.1097 59.4827 27.1118 59.6566H29.673C29.5793 58.8308 29.1108 58.3167 28.3768 58.3167H28.4236Z" fill="#58595B"/>
<path d="M32.9839 58.4882V62.3209H32.2499V58.4882H30.6881V57.8494H34.5925V58.4882H32.9839Z" fill="#58595B"/>
<path d="M37.4817 62.3209H35.1391V57.8494H35.92V59.532H37.4817C37.8524 59.532 38.2079 59.6789 38.4701 59.9404C38.7322 60.202 38.8795 60.5566 38.8795 60.9265C38.8795 61.2963 38.7322 61.651 38.4701 61.9125C38.2079 62.174 37.8524 62.3209 37.4817 62.3209ZM35.92 60.2176V61.6821H37.2631C37.8565 61.6821 38.1845 61.4172 38.1845 60.9498C38.1845 60.4824 37.8721 60.2176 37.2631 60.2176H35.92Z" fill="#58595B"/>
<path d="M45.0405 62.3209L43.4788 60.1397L42.776 60.8096V62.3676H42.042V57.8494H42.776V59.9527L44.8063 57.8494H45.7902L44.0098 59.5943L45.962 62.3209H45.0405Z" fill="#58595B"/>
<path d="M46.4461 62.3209V57.8494H47.1801V59.6099H49.3978V57.8494H50.1318V62.3209H49.3978V60.2955H47.1801V62.3209H46.4461Z" fill="#58595B"/>
<path d="M51.225 62.3209V57.8494H51.959V61.4484L53.9424 57.8494H54.8794V62.3209H54.1454V58.6595L52.162 62.3209H51.225Z" fill="#58595B"/>
<path d="M56.3475 62.3209H55.4417L57.3782 59.719L55.6916 57.9117H56.5974L58.3934 59.9371V57.9117H59.1274V59.9371L60.9078 57.8494H61.8136L60.1269 59.6567L62.1103 62.3209H61.2201L59.6584 60.1864L59.1118 60.7473V62.3053H58.3777V60.7473L57.8311 60.1864L56.3475 62.3209Z" fill="#58595B"/>
<path d="M62.6725 62.3209V57.8494H63.4066V59.6099H65.593V57.8494H66.327V62.3209H65.593V60.2955H63.4066V62.3209H62.6725Z" fill="#58595B"/>
<path d="M69.5598 62.3209H67.4202V57.8494H68.1542V59.532H69.5285C69.7202 59.5115 69.9141 59.5315 70.0976 59.5907C70.2811 59.6499 70.45 59.7469 70.5934 59.8755C70.7368 60.0041 70.8515 60.1613 70.9301 60.337C71.0086 60.5127 71.0491 60.7029 71.0491 60.8953C71.0491 61.0877 71.0086 61.2779 70.9301 61.4536C70.8515 61.6293 70.7368 61.7865 70.5934 61.9151C70.45 62.0437 70.2811 62.1407 70.0976 62.1999C69.9141 62.259 69.7202 62.279 69.5285 62.2586L69.5598 62.3209ZM68.1542 60.2176V61.6821H69.2943C69.8877 61.6821 70.2157 61.4172 70.2157 60.9498C70.2157 60.4824 69.9033 60.2176 69.2943 60.2176H68.1542ZM72.4021 57.9117V62.3209H71.6681V57.8494L72.4021 57.9117Z" fill="#58595B"/>
<path d="M75.5881 59.8903L77.3216 62.3208H76.3846L75.1352 60.5135L73.9171 62.3208H73.0269L74.6979 59.9994L73.1362 57.9116H74.0576L75.1352 59.4696L76.2284 57.9116H77.1186L75.5881 59.8903Z" fill="#58595B"/>
<path d="M84.3339 62.3209V58.7842L83.0689 62.3209H82.3973L81.0855 58.8309V62.3209H80.3514V57.8494H81.3978L82.7409 61.4328L84.084 57.8494H85.1304V62.3209H84.3339Z" fill="#58595B"/>
<path d="M90.1278 62.3207C89.9683 62.3819 89.799 62.4136 89.6281 62.4142C89.5408 62.4216 89.4529 62.4097 89.3708 62.3792C89.2886 62.3487 89.2143 62.3004 89.153 62.2379C89.0918 62.1753 89.0453 62.1 89.0167 62.0173C88.9881 61.9347 88.9782 61.8467 88.9878 61.7598C88.7877 61.957 88.5475 62.1091 88.2835 62.2059C88.0195 62.3026 87.7377 62.3418 87.4573 62.3207C87.2794 62.3454 87.0983 62.3315 86.9263 62.2799C86.7543 62.2284 86.5954 62.1406 86.4605 62.0223C86.3256 61.904 86.2179 61.758 86.1447 61.5945C86.0714 61.4309 86.0344 61.2535 86.0361 61.0743C86.0361 60.2797 86.5671 59.8279 87.5978 59.7032C88.6286 59.5786 89.019 59.5942 89.019 59.0021C89.019 58.4101 88.6598 58.2699 88.0195 58.2699C87.3792 58.2699 86.9888 58.5191 86.9263 59.1735H86.2079C86.2079 58.2387 86.9263 57.6155 88.0664 57.6155C88.5655 57.5828 89.0595 57.7324 89.4563 58.0362C89.7043 58.3661 89.811 58.7808 89.753 59.1891C89.753 59.8435 89.753 60.4978 89.753 61.1522C89.753 61.4794 89.753 61.5884 90.0498 61.5884H90.2372L90.1278 62.3207ZM87.9727 60.3109C87.4417 60.3109 86.7233 60.4355 86.7233 61.1522C86.7233 61.604 87.0512 61.8845 87.6134 61.8845C88.1757 61.8845 88.9565 61.4171 88.9565 60.8562V60.046C88.6541 60.1868 88.3215 60.251 87.9883 60.233L87.9727 60.3109Z" fill="#58595B"/>
<path d="M91.5647 58.4882V62.3209H90.8307V57.8494H93.876V58.4882H91.5647Z" fill="#58595B"/>
<path d="M98.3895 62.3209C98.23 62.3821 98.0606 62.4138 97.8897 62.4144C97.8024 62.4218 97.7145 62.4098 97.6324 62.3793C97.5502 62.3488 97.4759 62.3006 97.4147 62.238C97.3534 62.1754 97.3069 62.1001 97.2783 62.0175C97.2497 61.9348 97.2399 61.8469 97.2494 61.76C97.0589 61.9867 96.8194 62.1675 96.549 62.2889C96.2785 62.4103 95.9841 62.4692 95.6877 62.4611C95.5098 62.4857 95.3287 62.4718 95.1566 62.4203C94.9846 62.3688 94.8258 62.2809 94.6909 62.1626C94.556 62.0443 94.4483 61.8984 94.375 61.7348C94.3018 61.5713 94.2648 61.3938 94.2665 61.2147C94.2665 60.4201 94.7975 59.9683 95.8282 59.8436C96.859 59.719 97.2494 59.7346 97.2494 59.1425C97.2494 58.5505 96.8902 58.4102 96.2499 58.4102C95.6096 58.4102 95.2191 58.6595 95.1567 59.3139H94.4383C94.4383 58.3791 95.1567 57.7559 96.2967 57.7559C96.7959 57.7232 97.2899 57.8727 97.6867 58.1765C97.9346 58.5065 98.0414 58.9211 97.9834 59.3295C97.9834 59.9838 97.9834 60.6382 97.9834 61.2926C97.9834 61.6198 97.9834 61.7288 98.2801 61.7288H98.4675L98.3895 62.3209ZM96.203 60.2331C95.672 60.2331 94.9536 60.3578 94.9536 61.0745C94.9536 61.5263 95.2816 61.8067 95.8438 61.8067C96.4061 61.8067 97.1869 61.3393 97.1869 60.7784V59.9683C96.8869 60.1386 96.5482 60.2297 96.203 60.2331Z" fill="#58595B"/>
<path d="M100.67 57.6467C101.575 57.6467 102.341 58.0207 102.341 58.8308C102.347 59.0452 102.278 59.2551 102.148 59.4253C102.017 59.5955 101.831 59.7157 101.622 59.7656C101.874 59.811 102.101 59.947 102.26 60.1481C102.418 60.3491 102.497 60.6011 102.481 60.8563C102.481 61.8222 101.575 62.3052 100.638 62.3052C99.7013 62.3052 98.7643 61.7443 98.7174 60.7472H99.4514C99.4514 61.386 99.9824 61.6664 100.623 61.6664C101.263 61.6664 101.716 61.2769 101.716 60.8251C101.716 60.3733 101.45 60.1084 100.779 60.1084H100.17V59.5164H100.654C101.169 59.5164 101.591 59.3138 101.591 58.7997C101.591 58.2855 101.263 58.1609 100.654 58.1609C100.045 58.1609 99.592 58.379 99.5295 58.971H98.7955C98.858 58.0362 99.7638 57.6467 100.67 57.6467Z" fill="#58595B"/>
<path d="M103.34 62.3209V57.8494H104.074V61.4484L106.058 57.8494H106.995V62.3209H106.198V58.6595L104.262 62.3209H103.34Z" fill="#58595B"/>
<path d="M108.103 62.3209V57.8494H108.838V59.6099H111.055V57.8494H111.789V62.3209H111.055V60.2955H108.838V62.3209H108.103Z" fill="#58595B"/>
<path d="M116.943 60.0305C116.943 61.5885 116.162 62.3987 114.819 62.3987C114.517 62.4123 114.216 62.3601 113.937 62.2457C113.658 62.1314 113.407 61.9577 113.202 61.7367C112.996 61.5157 112.842 61.2528 112.749 60.9662C112.656 60.6796 112.627 60.3762 112.664 60.0773C112.615 59.771 112.635 59.4577 112.722 59.16C112.809 58.8623 112.961 58.5875 113.167 58.3552C113.373 58.123 113.628 57.939 113.914 57.8165C114.199 57.694 114.508 57.6361 114.819 57.6468C115.126 57.6276 115.434 57.6785 115.719 57.7956C116.004 57.9127 116.258 58.0929 116.463 58.3226C116.667 58.5523 116.817 58.8255 116.9 59.1214C116.983 59.4173 116.998 59.7282 116.943 60.0305ZM113.413 60.0305C113.413 61.1211 113.944 61.7599 114.835 61.7599C115.725 61.7599 116.209 61.1056 116.209 60.0149C116.209 58.9243 115.678 58.3011 114.819 58.3011C113.96 58.3011 113.398 59.0022 113.398 60.0617L113.413 60.0305Z" fill="#58595B"/>
<path d="M117.786 57.8494H119.832C120.597 57.8494 121.394 58.0207 121.394 58.9244C121.399 59.1316 121.338 59.3352 121.221 59.5059C121.103 59.6766 120.934 59.8058 120.738 59.8748C120.989 59.9203 121.214 60.057 121.37 60.2584C121.525 60.4599 121.601 60.7117 121.581 60.9654C121.592 61.1436 121.566 61.3222 121.503 61.4895C121.441 61.6569 121.344 61.8094 121.219 61.9371C121.094 62.0648 120.943 62.1649 120.777 62.231C120.611 62.2972 120.433 62.3278 120.254 62.3209H117.786V57.8494ZM120.597 59.0335C120.597 58.6595 120.394 58.4726 119.754 58.4726H118.489V59.6255H119.754C120.394 59.6255 120.613 59.423 120.613 59.0335H120.597ZM118.489 61.6354H120.051C120.149 61.6423 120.247 61.6281 120.34 61.5938C120.432 61.5594 120.516 61.5057 120.585 61.4363C120.655 61.3668 120.709 61.2833 120.743 61.1913C120.777 61.0993 120.792 61.001 120.785 60.9031C120.785 60.498 120.535 60.2487 119.926 60.2487H118.489V61.6354Z" fill="#58595B"/>
</svg>
